<svg version="1.1" viewBox="0 0 400.8 163.31" xmlns="http://www.w3.org/2000/svg"><g transform="matrix(1.3333 0 0 -1.3333 4.5075 98.822)"><g transform="matrix(.10652 -.010264 .010515 .10913 -8.2539 -22.175)"><path d="m184.63 665.13c0.402 0.137 0.898 0.074 1.555-0.34 14.187-3.016 28.324-5.406 42.347-6.937 0.746 0.843 1.528 1.609 3.215 0.128 0.207-0.179 0.375-0.351 0.516-0.515 24.199-2.379 48.023-2.121 71.074 1.941 151.58 26.739 352.27 110.95 538.1 188.94 36.714 15.402 72.847 30.562 107.92 44.996 0.364 0.496 0.825 0.84 1.629 0.672 124.34 51.136 235.16 92.961 310.64 103.59 33.74 4.758 69.46 9.128 106.65 13.088 0.49 0.39 1.03 0.6 1.78 0.19 17.21 1.83 34.72 3.57 52.5 5.21 0.34 0.15 0.67 0.21 1.04 0.09 104.46 9.63 217.98 16.05 330.64 18.41 0.59 0.28 1.17 0.45 1.76 0.04 11.13 0.23 22.24 0.42 33.34 0.56 0.24 0.03 0.48 0.05 0.72 0.08 0.44 0.03 0.88 0.05 1.27-0.05 73.85 0.96 146.87 0.13 216.22-2.74 53.56-2.22 104.95-5.66 152.88-10.43 0.55 0.13 1.08 0.19 1.54-0.15 13.72-1.38 27.15-2.86 40.26-4.46 0.28 0.04 0.56 0.03 0.82-0.09 114.68-14 205.14-36.577 250.96-69.487 11.69-8.39 23.32-17.601 34.88-27.523 0.24-0.125 0.44-0.328 0.64-0.555 36.75-31.648 72.67-70.586 106.69-114.09 4.69-5.746 9.26-11.73 13.67-17.859 51.85-69.188 98.77-148.42 136.73-227.54 56.3-117.34 92.92-234.57 96.76-318.64 0.47-0.582 0.29-1.273 0.08-1.968 1.29-32.434-2.36-59.844-11.75-80.27-23.13-50.328-74.45-96.758-133.62-125.66-55.99-27.34-119.09-39.039-172.11-23.574-59.85 17.457-64.06 88.668-68.37 161.77-1.56 26.562-3.15 53.387-7.44 77.812-0.49 0.36-0.74 0.997-0.45 2.317 0.01 0.027 0.02 0.055 0.02 0.078-1.96 10.699-4.47 20.906-7.75 30.41-1.46-1.098-2.94-2.148-4.43-3.14-38.24-25.485-69.29-54.836-95.01-79.149-23.64-22.355-42.83-40.496-59.31-47.797-15.29-6.777-33.83-0.863-49.51 9.336-8.42 5.477-16.04 12.211-21.87 18.84-5.92 6.75-10.04 13.492-11.33 18.828-0.95 3.914-0.45 7.231 1.8 9.551 7.7 7.933 15.06 16.289 21.59 25.629 5.82 8.34 10.94 17.441 15.01 27.699-19.79-3.043-42.26-5.047-65.77-4.562-36.33 0.75-75.19 7.433-110.59 25.359-20.88 10.57-40.29 25.773-58.43 45.98-18.08 20.137-34.91 45.258-50.71 75.746-0.01 0.036-0.19 0.532-0.2 0.567-0.92 4.156-1.38 13.398-0.38 22.703 0.72 6.773 2.21 13.664 4.84 18.816 1.25 2.454 3.52 4.114 6.21 5.211 2.84 1.164 6.13 1.715 9.07 1.942 0.11 0.054 0.22 0.101 0.34 0.129 19.49 10.949 58.24 21.582 96.27 32.015 46.71 12.817 92.34 25.348 98.02 36.68-3.25 36.777 2.75 63.812 16.55 82.637 13.29 18.109 33.69 28.511 59.93 32.593-1.11 0.907-2.5 1.653-4.11 2.266-3.32 1.27-7.5 1.981-12.01 2.402-1.84 0.176-2.75 2.473-1.54 3.864 3.86 4.402 8.15 7.472 12.7 9.425 8.51 3.657 17.83 3.422 26.69 0.793 8.7-2.582 16.98-7.5 23.58-13.265 4.76-4.164 8.67-8.805 11.27-13.363 15.28 17.871 32.17 30.734 50.06 38.113 16.18 6.676 33.15 8.867 50.45 6.242-26.97 25.672-54.88 48.488-81.14 66.285-26.87 18.195-51.93 31.09-72.38 36.317-21.2 5.425-67.71 10.695-128.21 12.816-48.48 1.695-105.93 1.367-166.49-2.531-21.85-1.407-44.35-1.864-67.05-2.321-45.53-0.925-91.86-1.867-136.08-10.64-37.92-7.528-163.28-30.649-295.27-52.719-82.99-13.879-168.65-27.352-236.83-36.262-54.71-7.148-141.94-36-243.84-78.687-103.77-43.469-222.68-101.26-337.9-165.09-11.981-6.633-24.653-13.883-37.481-21.211-60.406-34.535-124.38-71.113-186.47-82.879-60.555-11.473-130.75-10.199-200.87-2.848-70.046 7.344-139.98 20.746-200.13 33.555-0.9023 0.191-1.8593 1.363-1.8593 2.289v344.56c-0.13672 0.351-0.15235 0.828 0.02343 1.5 0.03125 0.414 0.12891 0.797 0.40235 1.093 0.70706 1.375 1.668 1.063 2.6329 0.75 15.453-4.996 30.812-10.277 46.406-15.628 41.043-14.102 83.707-28.758 126-37.891zm2411.8-236.36c-0.09 0.136-0.17 0.265-0.25 0.402-0.28 0.43-0.55 0.867-0.61 1.32-6.08 12.145-12.37 24.203-18.86 35.934-3.13-21.242-7.59-31.781-11.44-40.875-3-7.067-5.61-13.227-6.85-23.133-0.34-2.754 1.54-5.726 3.41-8.68 2.4-3.812 4.81-7.609 3.96-12.171-15.03-81.086-3.5-199.92 27.89-205.74 1.15-0.215 2.34-0.254 3.57-0.109 0.04 4e-3 0.57-4e-3 0.6-8e-3 10.74-1.543 21.78 1.695 33.11 9.723 5.67 4.015 11.4 9.218 17.19 15.601 0.11 0.207 0.27 0.367 0.45 0.489 5.61 6.23 11.28 13.566 17 22.007-0.07 0.563 0.08 0.946 0.36 1.231-0.92 5.719-0.79 11.437 0.41 17.164 1.2 5.793 3.49 11.574 6.87 17.34-6.22 11.722-14.81 31.695-25.38 56.269-14.02 32.59-31.53 73.293-51.43 113.24" fill="#231f20"/><path d="m2479.4 458.75c16.25-16.894 27.3-39.816 29.86-64.973 2.29-22.578-2.27-46.96-16.08-70.386-0.59-1.012-1.18-2.02-3.2-0.836-2.01 1.176-1.41 2.187-0.82 3.199 13.26 22.512 17.65 45.91 15.45 67.566-2.44 24.079-13.03 46.024-28.58 62.192-0.81 0.844-1.62 1.691 0.07 3.308 1.68 1.622 2.49 0.774 3.3-0.07" fill="#ed1c24"/><path d="m2528.8 120.53c-6.03-10.406-12.41-17.636-20.11-21.355-7.82-3.7735-16.82-3.8906-27.97 0.0078-1.11 0.3828-2.21 0.7734-1.45 2.9764 0.78 2.207 1.88 1.82 2.99 1.434 9.89-3.457 17.74-3.422 24.4-0.207 6.77 3.273 12.52 9.879 18.09 19.488 0.59 1.012 1.17 2.023 3.2 0.855 2.02-1.175 1.43-2.187 0.85-3.199" fill="#ed1c24"/><path d="m2249.7 475.01c2.54-1.231 4.87-2.782 6.98-4.578 6.72-5.746 11.25-14.082 13.27-22.914 2.03-8.817 1.57-18.188-1.67-26.008-0.94-2.266-2.11-4.395-3.51-6.356 11.23-7.972 26.75-12.144 45-12.144 18.17 0 33.5 7.824 44.57 19.668 12.22 13.078 19.27 31.043 19.27 48.82 0 17.16-1.92 32.684-8.6 43.785-6.52 10.832-17.79 17.551-36.63 17.551-18.91 0-39.38-10.684-55.3-25.613-10.24-9.59-18.57-20.895-23.38-32.211" fill="#fffccc"/><path d="m2305.2 278.45c-10-13.984-23.29-25-36.85-36.242-4.14-3.434-8.32-6.891-12.25-10.305-2.21-1.914-5.03-3.91-7.98-5.988-2.09-1.469-4.25-2.988-6.2-4.484-5.9-4.535-10.6-9.246-7.67-13.071 0.24-0.308 0.57-0.714 0.96-1.183 14.44-17.149 42.46-14.957 73.57 11.226l0.08 0.047c19.68 15.43 37.09 33.707 50.86 57.043 12.99 22 22.75 48.52 28.18 81.418-4.78-4.531-9.78-9.574-14.91-15.164h0.01c-3.41-3.715-7.05-7.769-10.75-11.898-19.22-21.414-40.22-44.821-57.05-51.399" fill="#d0a8bf"/><path d="m2310.3 213.53c13.61 9.68 28.72 21.786 43.91 36.196 21.42 20.32 43.02 45.215 60.85 74.304 4.87 7.961 14.16 32.797 23.71 60.649 7.83 22.828 15.82 47.629 21.72 66.851-4.48-9.824-9.22-19.773-13.7-28.75-8.27-16.531-15.77-29.871-19.39-33.297-1.44-1.367-4.04-3.332-7.57-5.988-6.26-4.719-15.53-11.707-26.34-21.465-5.3-36.242-15.65-65.14-29.68-88.914-14.09-23.879-31.89-42.57-52.02-58.343l0.08 0.046c-0.52-0.437-1.05-0.867-1.57-1.289" fill="#4e4a3d"/><path d="m2248.2 193.13c0.02-8e-3 0.03-0.016 0.05-0.02 9.43-3.632 20.42-4.679 27.96-0.781 3.32 1.719 7 3.762 10.97 6.113-14.66-7.089-28.05-8.675-38.98-5.312" fill="#ed1c24"/><path d="m2267.9 267.86c-8.58-16.273-17.29-27.773-26.27-39.628-0.7-0.934-1.42-1.868-2.12-2.797 1.97 1.5 4 2.925 5.96 4.312 2.88 2.024 5.62 3.961 7.62 5.696 4.19 3.632 8.27 7.011 12.32 10.375 11.49 9.519 22.78 18.882 31.85 29.921-7.58-2.414-17.57-5.211-29.36-7.879" fill="#4e4a3d"/><path d="m2481.3 330.69c-4.43-9.368-11.08-19.497-18.99-28.774-3.06-3.586-6.31-7.051-9.71-10.293 11.82-1.859 23.38-0.129 33.74 4.039 12.73 5.129 23.64 13.918 31.04 24.246 2.45 9.817 5.94 21.422 9.74 34.055 7.72 25.719 16.74 55.746 20.76 83.105 3.74 25.383 1.73 46.528-4.74 64.352-6.34 17.469-16.99 31.801-30.73 43.859-53.23-3.25-77.86-42.574-101.4-80.16-19.23-30.711-37.76-60.289-70.5-69.285-0.44-0.211-0.88-0.391-1.31-0.352-1.59-0.406-3.21-0.765-4.86-1.07-4.93-0.914-12-0.875-19.74 0.094-7.2 0.902-15.04 2.617-22.31 5.121-0.11 0.039-0.22 0.074-0.32 0.113-13 2.168-24.13 6.805-32.67 13.75-5.79 4.703-10.39 10.45-13.58 17.176-22.4-6.086-46.32-15.43-70.31-24.805-49.71-19.421-99.77-38.98-139.05-30.613l-0.04 0.012c-11.97 2.719-29.93 13.699-44.73 26.07-14.1 11.789-25.48 25.035-26.45 33.965-0.34 3.125 0.12 6.234 1.29 9.254 0.55 1.43 1.26 2.844 2.13 4.219-1.01-0.231-1.99-0.524-2.87-0.887-1.72-0.707-3.13-1.684-3.81-3.02-2.36-4.605-3.7-10.918-4.38-17.183-0.91-8.586-0.56-16.965 0.23-20.891 15.57-30 32.14-54.715 49.9-74.504 17.75-19.777 36.71-34.633 57.06-44.937 34.68-17.555 72.84-24.106 108.57-24.844 24.51-0.508 47.85 1.719 68.15 4.996 0.17 0.059 0.36 0.094 0.59 0.09 27.06 4.406 48.67 10.656 60.29 14.758 0.41 0.476 0.89 0.816 1.66 0.621 15.67 6.344 36.14 29.144 54.86 50.012 3.64 4.05 7.21 8.035 10.79 11.941h0.01c19.52 21.289 37.33 34.711 47.4 42.309 3.37 2.539 5.85 4.41 7.17 5.66 3.21 3.035 10.37 15.89 18.41 31.98 8.38 16.75 17.63 36.895 24.41 53.215-6.96-3.102-13.63-5.055-19.96-5.633-8.12-0.742-15.65 0.739-22.47 4.867-1 0.61-2 1.219-0.78 3.223s2.22 1.395 3.22 0.789c5.92-3.594 12.5-4.883 19.61-4.23 7.29 0.672 15.2 3.371 23.59 7.715 0.01 3e-3 0.24 0.109 0.25 0.109 10.65 4.043 19.79 5.312 27.43 3.808 7.86-1.554 14.06-5.988 18.59-13.296 0.63-0.996 1.24-1.993-0.75-3.219-1.98-1.223-2.6-0.231-3.21 0.765-3.81 6.141-8.99 9.864-15.53 11.153-6.35 1.254-14.05 0.281-23.08-2.914-2.4-10.477-14.27-49.219-26.68-86.176 8.02-8.73 13.44-19.094 16.06-30.855 2.65-11.833 2.45-25.063-0.75-39.426-0.25-1.145-0.51-2.285-2.79-1.785-2.28 0.503-2.02 1.648-1.77 2.789 3.05 13.691 3.25 26.242 0.75 37.418-2.25 10.062-6.7 19.039-13.23 26.746-0.77-2.274-1.53-4.535-2.3-6.774-9.64-28.101-19.06-53.258-24.15-61.562-18.07-29.485-39.94-54.692-61.62-75.262-30.27-28.715-60.25-48.434-79.06-58.16-8.81-4.555-21.25-3.484-31.77 0.562-5.16 1.985-9.9 4.704-13.56 7.825-3.82 3.269-6.5 7.039-7.34 10.972-0.73 3.391-0.11 6.832 2.25 10.121 3.46 4.821 6.73 9.133 9.96 13.391 8.19 10.824 16.16 21.34 23.96 35.496-5.54-1.168-11.42-2.285-17.6-3.312-4.37-11.727-10.02-21.965-16.5-31.243-6.64-9.507-14.18-18.054-22.08-26.199-1.02-1.051-1.17-2.867-0.61-5.191 1.12-4.606 4.86-10.645 10.31-16.852 5.55-6.328 12.84-12.758 20.9-17.996 14.5-9.441 31.46-15.004 45.08-8.969 15.75 6.977 34.67 24.871 57.99 46.914 25.85 24.438 57.05 53.934 95.64 79.645 8.48 5.652 16.65 13.277 23.75 21.617 7.65 8.957 14.06 18.723 18.32 27.735 0.5 1.054 1.01 2.117 3.12 1.117 2.12-1 1.62-2.059 1.11-3.117" fill="#abb070"/><path d="m2247.7 634c-26.42-3.562-46.8-13.473-59.79-31.168-8.44-11.516-13.81-26.371-15.73-44.965 3.15-0.16 6.12-0.945 8.79-2.254 3.8-1.859 6.99-4.769 9.28-8.418 2.26-3.621 3.65-7.972 3.85-12.765 0.18-4.168-0.55-8.68-2.36-13.313 13.66-0.445 25.25 2.047 34.93 6.563 0.17 0.136 0.37 0.222 0.59 0.277 11.54 5.527 20.34 13.949 26.7 23.691 6.43 9.844 10.4 21.051 12.24 31.989 1.83 10.922 1.52 21.547-0.61 30.261-2.91 11.856-9.17 20.055-17.89 20.102" fill="#fffccc"/><path d="m2298.4 624.58c-0.15 0.168-0.27 0.363-0.36 0.586-2.13 4.953-6.31 10.273-11.7 14.992-6.13 5.356-13.79 9.91-21.83 12.293-7.88 2.34-16.11 2.578-23.52-0.609-2.71-1.16-5.32-2.785-7.77-4.926 3.08-0.477 5.95-1.133 8.44-2.086 3.63-1.387 6.52-3.391 8.26-6.285 10.02-1.223 17.04-10.504 20.24-23.551 2.28-9.308 2.61-20.59 0.68-32.129-1.93-11.519-6.13-23.344-12.93-33.765-4.43-6.786-9.96-12.981-16.67-18.106 12.85 5.051 27.02 16.133 38.25 30.098 12.36 15.355 21.11 34.14 20.58 52.109-0.11 3.848-0.65 7.656-1.67 11.379" fill="#90621d"/><path d="m2412.3 667.45c-0.04 4e-3 -0.07 0.02-0.1 0.031-1.32 0.387-2.67 0.75-4.06 1.079-19.1 4.519-37.86 2.871-55.62-4.454-17.7-7.304-34.45-20.253-49.57-38.363 1.11-4.074 1.7-8.226 1.82-12.406 0.56-19.164-8.64-39.027-21.63-55.176-12.96-16.105-29.77-28.59-44.46-33.012-3.45-1.039-6.8-1.648-9.97-1.757-14.95-6.985-34.11-9.399-58.06-4.289-9.96-12.684-54.38-24.875-99.81-37.34-37.2-10.211-75.09-20.606-94.31-31.067-0.25-0.843-0.86-1.054-1.55-1.129-1.88-2.164-3.29-4.421-4.17-6.703-0.91-2.324-1.26-4.707-1-7.078 0.83-7.633 11.52-19.758 24.81-30.867 14.31-11.969 31.49-22.551 42.75-25.102l-0.03 8e-3c37.92-8.078 87.33 11.227 136.39 30.391 23.88 9.332 47.69 18.637 70.2 24.797-2.18 6.004-3.33 12.683-3.33 20.031 0 18.445 12.11 39.437 29.34 55.586 16.73 15.676 38.36 26.894 58.51 26.894 20.75 0 33.27-7.589 40.64-19.824 7.21-11.972 9.28-28.289 9.28-46.199 0-18.937-7.52-38.074-20.54-52.008-10.2-10.922-23.78-18.66-39.77-20.656 6.14-0.598 11.6-0.547 15.45 0.168 1.84 0.344 3.63 0.758 5.37 1.226 32.53 16.184 50.3 42.723 57.15 69.067 3.63 13.969 4.19 27.875 2.26 40.144-1.91 12.137-6.27 22.629-12.49 29.926-5.97 6.992-13.69 11.012-22.62 10.621-1.18-0.05-2.35-0.105-2.45 2.242-0.1 2.344 1.07 2.395 2.24 2.446 10.49 0.457 19.49-4.192 26.38-12.27 6.79-7.949 11.51-19.258 13.56-32.25 2.02-12.867 1.43-27.426-2.36-42.031-2.5-9.617-6.4-19.258-11.85-28.453 6.35 8.773 12.32 18.293 18.36 27.937 24.3 38.813 49.74 79.438 106.06 82.418 0.32 0.012 1.4-0.367 1.64-0.578 14.67-12.695 26.05-27.855 32.79-46.437 6.29-17.348 8.54-37.633 5.65-61.625 0.86 1.945 1.77 3.918 2.73 5.984 6.15 13.262 14.09 30.371 17.18 66.852-0.46 3.648-1.05 7.277-1.8 10.851-3.02 14.477-8.46 28.106-17.01 38.906-12.81 16.176-33.49 23.208-54.17 30.235-9.7 3.293-19.41 6.59-28.39 10.832-0.11 0.039-0.21 0.086-0.31 0.129-4.04 1.676-7.98 3.461-11.76 5.5-3.81 2.062-7.44 4.375-10.82 7.066-0.91 0.731-1.83 1.461-0.37 3.293 1.45 1.832 2.37 1.098 3.28 0.371 3.16-2.519 6.56-4.683 10.13-6.609 0.98-0.531 1.97-1.047 2.98-1.547-0.95 1.723-1.89 3.477-2.84 5.23-10.86 20.051-22.1 40.786-49.73 48.969" fill="#90621d"/><path d="m2573.1 474.48c0.49 4.109 0.83 8.347 1.02 12.656-3.91-19.945-9.43-31.867-14-41.719-3.17-6.828-5.86-12.633-7.13-19.402-4.6-24.594-3.89-37.578 0.21-38.344 0.06-0.012 0.16-0.016 0.26-0.016 1.54 0.036 2.75-1.539 2.31-3.011-5.8-19.184-13.2-49.641-16.63-76.118-2.45-18.898-2.91-35.703 0.68-44.664l0.02-0.039c1.21-3.164 3.38-5.257 6.43-6.504 2.96-1.211 6.78-1.683 11.38-1.609-4.58 40.141-3.7 87.715 3.53 126.7 0.51 2.766-1.41 5.797-3.33 8.836-2.32 3.668-4.65 7.348-4.1 11.738 1.32 10.512 4.06 16.977 7.19 24.375 4.13 9.75 8.99 21.208 12.05 46.629 0.02 0.176 0.05 0.34 0.11 0.493" fill="#541f29"/><g fill="#abb070"><path d="m2454.2 253.49c12.02-2.355 22.53-0.867 31.69 3.227 11.31 5.054 20.65 14.105 28.26 24.804-0.09 5.864-0.21 11.711-0.39 17.551v0.121c0.08 3.008 0.54 6.594 1.31 10.657-7.33-7.805-16.62-14.329-27.06-18.528-12.15-4.89-25.85-6.648-39.8-3.656-0.8-0.691-1.6-1.367-2.4-2.027 3.58-10.055 6.29-20.848 8.39-32.149"/><path d="m2459 218.66c13.38-2.847 23.97-2.39 32.86 1.129 8.89 3.516 16.21 10.141 23.05 19.598-0.26 9.558-0.37 19.125-0.5 28.672-0.02 1.957-0.05 3.914-0.07 5.867-7.35-9.164-16.11-16.832-26.47-21.465-9.55-4.269-20.42-5.953-32.73-3.871 1.64-9.691 2.87-19.719 3.86-29.93"/><path d="m2839.1 226.74c-13.47-37.211-34.24-68.187-61.22-93.297-31.4-29.226-71.19-50.488-117.6-64.379-26.74-8.0078-48.79-8.0469-66.77-2.5351-20.78 6.3671-36.05 20.125-46.84 37.578-14.02 22.692-21.82 46.934-26.23 71.926-0.15-0.222-0.32-0.437-0.49-0.648-7.64-9.293-15.11-15.391-23.31-17.813-8.32-2.449-17.22-1.101-27.59 4.551-1.03 0.559-2.06 1.121-0.94 3.172s2.14 1.492 3.17 0.93c9.2-5.016 16.95-6.254 24.05-4.161 7.22 2.125 13.97 7.711 21.01 16.286 0.75 0.902 1.49 1.808 3.29 0.324 0.16-0.129 0.29-0.246 0.41-0.367-2.96 17.636-4.28 35.636-4.95 53.726-6.38-7.758-13.33-13.351-21.57-16.609-9.43-3.731-20.45-4.356-34.14-1.629 1.22-13.684 2.05-27.66 2.87-41.563 4.21-71.441 8.32-141.04 64.98-157.56 51.83-15.117 113.73-3.5781 168.76 23.301 58.27 28.453 108.76 74.05 131.43 123.38 7.86 17.129 11.59 39.325 11.68 65.387"/></g><path d="m2759 522.44c3.34-14.41 5.64-28.422 6.68-41.949 1.7-21.871 0.11-42.519-5.68-61.586-0.3-0.98-1.62-1.805-2.64-1.629-17.98 3.11-35.48 3.032-52.2-2.156-16.7-5.18-32.7-15.492-47.73-32.836-0.31-0.363-1.49-0.851-1.96-0.812-10.84 0.937-20.94 5.363-30.76 13.398-4.26 3.48-8.46 7.652-12.65 12.52 15.27-32.196 28.84-63.735 40.14-90.012 1.38-3.184 2.71-6.289 4.01-9.309-1.65 14.352-2.53 28.914 6.47 42.043 4.42 6.438 9.07 12.309 13.91 17.574 15.84 17.262 33.7 28.204 51.6 32.129 18.05 3.953 36.1 0.774 52.15-10.234 3.02-2.07 5.96-4.414 8.81-7.023 11.14-10.235 19.39-21.469 25.19-33.2 11.89-24.062 13.45-50.175 8.53-74.078-4.91-23.855-16.29-45.535-30.26-60.758-6.94-7.558-14.55-13.547-22.35-17.457-3.95-3.355-10.35 1.067-19.54 7.418-17.5 12.106-46.52 32.168-80.75 17.106-4.57-6.781-9.11-12.883-13.62-18.301 27.44 5.184 46.87 2.359 61.91-4.672 16.21-7.578 27.16-19.918 37.57-32.383 0.29-0.355 0.59-1.578 0.48-2.031-1.62-6.898-3.9-13.293-6.76-19.172-9.62-19.805-25.65-33.687-44.27-41.441-18.57-7.7346-39.72-9.3713-59.64-4.7034-6.87 1.6134-13.62 3.9804-20.05 7.1094-0.5 0.238-1.25 1.324-1.31 1.879-1.58 15.73-4.55 28.984-9.43 38.266-4.35 8.265-10.25 13.3-18.1 13.949-1.67-3.879-2.61-8.938-2.82-15.172-0.25-7.192 0.49-15.863 2.2-26 0.24-1.469-1.09-2.875-2.57-2.711-5.67 0.637-10.75 2.305-15.26 4.824-14.12 7.875-22.58 23.961-26.98 42.543-4.33 18.266-4.76 39.024-2.79 56.637 1.38 12.41 3.97 23.336 7.23 30.805-4.34 0.082-8.08 0.683-11.19 1.957-4.28 1.75-7.33 4.703-9.05 9.175l0.02-0.035c-3.91 9.785-3.52 27.387-0.97 46.992 3.35 25.817 10.38 55.258 16.1 74.649-3.3 2.078-5.15 8.34-5.02 18.633-4.24-17.164-9.36-34.246-14.02-49.77-3.74-12.433-7.18-23.855-9.59-33.453 0.07-0.422-0.07-0.805-0.29-1.18-1.89-7.644-3.08-14.07-3.21-18.843 0.31-10.239 0.45-20.625 0.58-31.036 0.12-9.382 0.23-18.789 0.49-28.183 0.58-0.731 0.41-1.344 0.06-1.93 1.36-45.902 6.29-91.355 31.06-131.43 10.22-16.54 24.65-29.559 44.23-35.563 17.13-5.25 38.26-5.1719 64.07 2.5547 45.73 13.688 84.89 34.597 115.74 63.316 29.36 27.324 51.23 61.758 64.13 103.8-3.21 74.722-33.06 176.73-79.9 281.77" fill="#90621d"/><path d="m2641.2 735.6c12.81-26.535 19.75-51.235 16.51-67.09-0.85-4.192-2.4-7.801-4.7-10.711-0.34-0.438-1.56-0.934-2.11-0.871-23.47 2.84-43.92-2.453-60.57-12.348-19.73-11.715-34.17-29.875-42.06-48.629-0.31-0.75-1.55-1.508-2.35-1.437-11.28 0.976-34.21 10.422-56.8 22.953-11.81 6.551-23.57 13.961-33.55 21.461 3.83-5.91 7.19-12.098 10.51-18.231 1.9-3.519 3.8-7.023 5.85-10.574 9.25-4.551 19.44-8.016 29.63-11.48 21.34-7.25 42.69-14.512 56.35-31.75 2.09-2.633 3.99-5.434 5.74-8.356 6.93 20.086 19.53 36.438 37.96 47.867 18.69 11.594 43.34 18.078 74.1 18.215 10.78 0.047 24.03-8.445 37.11-21.519 5.88-5.887 11.76-12.731 17.39-20.137-26.33 52.293-56.39 104.16-89.01 152.64" fill="#90621d"/><g fill="#541f29"><path d="m553.24 727.34c-89.691-32.887-175.16-59.508-249.09-72.551-23.946-4.223-48.641-4.414-73.684-1.859-83.156-96.395-61.379-210.06-43.691-225.58 0.601-0.527 1.171-0.898 1.691-1.093 136.86-51.789 329.11 42.394 351.64 101.93 1.105 2.922 1.777 5.77 1.976 8.508v-0.035c0.563 9.371 0.102 21.625-0.445 36.141-1.465 38.886-3.539 93.925 11.605 154.54"/><path d="m945.88 886.84c-33.402-13.774-67.75-28.184-102.62-42.817-82.598-34.66-168.12-70.55-251.01-102.09-5.16-37.664-3.769-71.52 0.684-99.133 6.23-38.676 18.324-64.867 26.734-71.949 6.164-5.196 15.063-8.008 25.965-8.817 36.289-2.703 93.816 16.629 148.28 43.715 54.536 27.125 105.87 61.977 129.69 90.25 8.113 9.629 12.949 18.379 13.492 25.633 0 0.035 0.113 0.539 0.125 0.574 4.035 11.817 2.121 31.223-0.086 53.613-3.453 34.985-7.609 77.114 8.75 111.02"/><path d="m1363.4 1005.5c-35.19-3.8-69.03-7.972-101.09-12.487-65.19-9.184-157.28-41.946-261.81-83.907-7.083-31.933-10.071-67.679-8.891-97.527 1.132-28.715 6.054-51.762 14.801-60.234 6.16-5.973 15.41-9.95 26.86-12.231 34.28-6.808 87.63 1.68 138.16 17.746 50.53 16.071 98.08 39.676 120.79 63.098 7.12 7.344 11.72 14.605 13.1 21.52 0 7e-3 0.08 0.289 0.08 0.3 2.8 8.184 5.6 20.582 8.9 35.121 9.14 40.379 22 97.149 49.1 128.6"/><path d="m13.848 507.07v-72.457c24.394-0.742 42.91 2.184 55.715 8.074 13.371 6.157 20.418 15.59 21.297 27.434v-0.035c0.9844 16.246 3.9648 40.004 16.829 72.148 12.546 31.352 34.531 70.711 73.332 118.88-41.668 9.223-83.571 23.617-123.91 37.473-14.774 5.074-29.344 10.078-43.258 14.621v-205.76c0.0039-0.125 0-0.25 0-0.375"/><path d="m2662.5 293.56c6.24-14.305 11.48-25.809 15.52-33.25 0.28-0.512 0.25-1.84-0.05-2.336-3.48-5.684-5.81-11.356-6.98-17.008-0.99-4.699-1.17-9.406-0.56-14.114 35.56 14.25 65.02-6.128 82.95-18.523 7.55-5.223 12.75-8.809 13.91-7.66 0.04 0.043 0.56 0.414 0.61 0.441 7.37 3.641 14.61 9.34 21.26 16.582 13.45 14.645 24.4 35.528 29.13 58.528 4.73 22.965 3.25 48.023-8.14 71.07-5.55 11.227-13.47 21.996-24.17 31.824-2.69 2.469-5.46 4.672-8.27 6.606-14.94 10.242-31.74 13.199-48.53 9.519-16.96-3.715-33.96-14.179-49.14-30.715-4.7-5.113-9.22-10.804-13.5-17.047-8.8-12.843-6.99-27.964-5.23-42.679 0.46-3.785 0.91-7.551 1.17-10.977 0.01-0.09 0.01-0.172 0.02-0.261"/><path d="m2558.9 246.33c-2.54-6.848-4.57-16.148-5.73-26.629-1.91-17.137-1.51-37.32 2.7-55.047 4.12-17.41 11.89-32.398 24.69-39.539 3.15-1.758 6.62-3.043 10.43-3.781-1.4 9.125-1.98 17.031-1.76 23.73 0.26 7.672 1.59 13.84 3.99 18.508 0.3 0.578 1.46 1.281 2.11 1.274 10.54-0.133 18.21-6.184 23.65-16.528 5.04-9.578 8.13-22.929 9.8-38.668 5.76-2.691 11.78-4.761 17.91-6.199 18.98-4.453 39.12-2.898 56.79 4.461 17.61 7.336 32.77 20.453 41.85 39.152 2.54 5.247 4.62 10.942 6.14 17.079-9.85 11.753-20.26 23.269-35.19 30.246-15.27 7.132-35.47 9.652-65.01 3.086-5.91-6.465-11.77-11.758-17.58-15.875-12.23-8.664-24.3-12.188-36.18-10.567-1.57-0.152-3.12-0.09-4.64 0.192-16.6 3.078-28.26 34.3-33.97 75.105"/><path d="m2600.6 430.99c9.09-14.254 17.99-25.047 27.09-32.496 8.69-7.117 17.58-11.148 27.03-12.215 15.41 17.496 31.87 27.973 49.08 33.313 16.85 5.226 34.37 5.515 52.3 2.648 5.13 17.918 6.5 37.332 4.91 57.906-1.65 21.372-6.49 43.977-13.62 67.465-10.3 19.332-24.05 38.41-37.8 52.168-12.25 12.239-24.36 20.192-33.78 20.149-29.88-0.133-53.71-6.364-71.67-17.5-18.7-11.598-31.08-28.578-37.32-49.559 4.14-8.285 7.11-17.398 9.08-26.844 0.72-3.496 1.31-7.043 1.78-10.601 0.17-0.352 0.18-0.77 0.15-1.199 1.67-13.598 1.5-27.446 0.01-40.122 7.88-13.992 15.48-28.503 22.76-43.113"/><path d="m2149.6 1018.4c-44.85 4.23-92.61 7.33-142.26 9.39-69.8 2.89-143.29 3.71-217.61 2.72-7.57-0.9-15.57-8.24-23.03-19.02-8.93-12.931-16.92-30.681-22.45-48.439-5.51-17.684-8.56-35.309-7.63-48.074 0.55-7.735 2.53-13.512 6.26-16.086 0.02-0.02 0.4-0.336 0.42-0.36 11.92-13.308 32.66-23.156 57.55-29.558 27.63-7.106 60.29-9.942 91.76-8.551 37.53 1.656 73.98 8.633 101.98 17.699 29.13 9.426 48.91 20.844 50.68 30.516 0.01 0.035 0.17 0.535 0.18 0.566 12.28 26.285 30.05 52.297 51.06 73.024 16.11 15.882 34.13 28.683 53.09 36.173"/><path d="m2486.1 916.57c-11.54 9.926-23.15 19.125-34.81 27.504-45.18 32.449-134.78 54.746-248.57 68.626-12.33-4.86-31.65-14.137-48.01-32.829-16.35-18.668-29.8-46.797-30.56-89.41 26.53-29.191 74.02-54.449 118.73-70.055 24.57-8.574 48.26-14.222 67.14-16 18.28-1.722 31.81 0.117 36.77 6.387 0.91 1.156 1.52 2.477 1.79 3.957 0.01 0.074 0.27 0.734 0.31 0.797 13.23 21.75 36.51 38.18 62.44 50.859 25.72 12.586 54.08 21.5 77.75 28.27 0.55 0.156 1.02 0.383 1.4 0.672 1.04 0.773 1.58 2.109 1.75 3.746 0.19 1.961-0.14 4.316-0.84 6.75-1.09 3.824-3.06 7.746-5.23 10.66-0.02 0.023-0.04 0.047-0.06 0.066"/><path d="m2605.6 785.71c-4.16 5.551-8.36 11.031-12.58 16.445-11.99 14.739-24.76 27.891-37.33 37.84-11.98 9.481-23.71 16.016-34.31 18.18-18.46 3.766-48.17-1.356-74.81-15.109-16.98-8.766-32.69-21.047-43.34-36.766-10.59-15.609-16.2-34.652-13.14-57.059 3.56-26.039 18.8-56.664 51.43-91.824 11.02-11.859 30.33-25.031 49.86-35.863 20.96-11.629 42.06-20.52 53.28-22.16 8.39 19.023 23.22 37.3 43.28 49.218 17.15 10.188 38.12 15.727 62.12 13.121 1.45 2.157 2.46 4.75 3.06 7.708 3.8 18.64-7.77 51.074-26.63 83.949-6.26 10.906-13.32 21.836-20.89 32.32"/><path d="m1746.2 1029.7c-109.87-2.48-220.31-8.82-322.12-18.19-15.9-11-31.58-42.177-38.81-73.677-6.31-27.422-6.17-54.906 5.9-69.097 17.12-20.149 45.4-39.098 74.12-48.149 24.05-7.582 48.33-8.191 66.36 3.356 0.26 0.164 1.35 0.39 1.65 0.34 26.41-4.458 54.96 1.25 79.24 10.812 31.89 12.551 56.21 31.449 58.3 42.473 3.5 24.265 14.79 64.879 33.02 99.472 11.42 21.664 25.59 41.01 42.34 52.66"/></g><path d="m186.13 660.01c-39.379-48.574-61.547-88.125-74.11-119.52-12.597-31.48-15.515-54.754-16.476-70.68v-0.035c-1.0156-13.621-8.961-24.402-24.024-31.336-13.438-6.183-32.621-9.269-57.676-8.523v-22.223c15.188-3.566 29.394-7.461 43.586-11.344 49.543-13.562 98.929-27.082 182.2-25.007 29.98 0.746 87.191 17.965 149.77 40.672 94.777 34.382 201.75 81.343 245.43 102.83l-8e-3 -8e-3c26.239 12.906 49.848 24.562 71.426 35.211 110.12 54.367 167.35 82.617 251.15 117.96 46.855 19.758 104.08 39.082 158.72 55.523 73.01 21.969 141.53 38.84 174.56 44.766 66.62 11.949 139.57 22.75 207.88 31.89 112.43 15.043 212.27 25.614 250.59 29.469 38.41 3.867 100.33 8.906 158.47 12.313 44.78 2.625 87.49 4.308 115.82 3.781 129.82-2.406 172.34-18.266 211.05-32.699 1.16-0.434 2.54-0.95 6.36-2.36 22.83-8.433 59.8-30.531 95.91-59.472 29-23.239 57.5-50.934 77.78-79.567 4.76-1.468 9.04-3.273 12.93-5.363-26.07 30.961-38.69 58.437-41.96 82.324-3.24 23.684 2.69 43.817 13.88 60.317 11.12 16.398 27.45 29.179 45.09 38.285 27.57 14.226 58.5 19.484 77.89 15.531 11.38-2.324 23.78-9.18 36.28-19.074 0.19-0.153 0.38-0.309 0.57-0.461-20.76 23.801-42.07 45.68-63.69 65.078 0.13-0.395 0.25-0.777 0.37-1.168 0.84-2.949 1.24-5.898 0.98-8.488-0.3-2.918-1.4-5.407-3.6-7.043-0.82-0.617-1.79-1.106-2.91-1.422-23.47-6.707-51.57-15.539-77-27.973-25.07-12.269-47.55-28.051-60.29-48.75-0.45-2.09-1.34-3.945-2.61-5.566-6.03-7.625-21.02-9.996-40.87-8.129-19.27 1.812-43.35 7.547-68.26 16.242-45.7 15.953-94.35 41.93-121.3 72.008-0.21 0.23-0.6 1.285-0.6 1.594 0.61 44.441 14.66 73.82 31.75 93.347 13.93 15.907 29.84 25.235 42.16 30.855-10.63 1.24-21.46 2.42-32.48 3.52-21.81-6.34-42.68-20.308-61.05-38.422-20.55-20.273-37.95-45.703-49.99-71.425-2.43-11.36-23.32-23.942-53.78-33.805-28.39-9.188-65.29-16.258-103.2-17.934-31.89-1.41-65.05 1.477-93.12 8.7-25.65 6.597-47.15 16.847-59.74 30.796-4.86 3.536-7.39 10.458-8.03 19.418-0.96 13.317 2.18 31.567 7.85 49.793 5.65 18.157 13.87 36.369 23.08 49.699 4.75 6.88 9.8 12.49 14.98 16.2-7.48-0.12-14.96-0.25-22.45-0.41-18.89-10.24-34.8-31.16-47.39-55.039-17.97-34.102-29.1-74.114-32.54-97.989l-0.02-0.093c-2.26-12.352-27.84-32.911-61.2-46.043-24.69-9.723-53.75-15.559-80.83-11.211-19.26-11.891-44.58-11.266-69.51-3.407-29.54 9.313-58.65 28.829-76.31 49.594-13.13 15.446-13.48 44.461-6.89 73.164 6.64 28.891 20.35 57.645 35.12 71.864-15.37-1.45-30.54-2.97-45.46-4.56-28.72-29.476-42.15-88.749-51.58-130.37-3.3-14.609-6.13-27.082-8.96-35.441-1.59-7.797-6.62-15.797-14.32-23.735-23.25-23.984-71.56-48.027-122.73-64.308-51.19-16.278-105.4-24.84-140.47-17.872-12.32 2.446-22.37 6.829-29.22 13.473-9.666 9.367-15.049 33.57-16.229 63.402-1.156 29.211 1.649 64.047 8.344 95.61-14.004-5.637-28.227-11.438-42.629-17.36-18.691-33.445-14.371-77.253-10.813-113.33 2.247-22.746 4.188-42.484-0.019-55.242-0.703-8.23-5.914-17.785-14.57-28.054-24.219-28.747-76.137-64.036-131.2-91.422-55.133-27.422-113.55-46.981-150.72-44.211-11.863 0.883-21.66 4.039-28.632 9.918-9.043 7.613-21.907 34.945-28.332 74.804-4.414 27.391-5.864 60.821-1.036 97.973-9.613-3.644-19.187-7.223-28.718-10.738-15.821-61.125-13.715-117.03-12.235-156.33 0.551-14.664 1.02-27.039 0.45-36.582v-0.039c-0.235-3.133-1.016-6.418-2.297-9.809-23.008-60.801-218.62-157.27-357.66-104.66-1.05 0.398-2.097 1.058-3.121 1.957-18.25 16.019-41.488 131.57 41.145 229.71-12.84 1.512-25.758 3.726-38.707 6.461" fill="#90621d"/><path d="m2402.8 679.56c-19.18 24.453-43.88 47.906-68.97 68.015-35.72 28.629-72.16 50.438-94.59 58.723-0.42 0.152-3.28 1.226-6.38 2.379-38.33 14.293-80.42 29.992-209.49 32.386-28.15 0.52-70.76-1.156-115.49-3.781-58.42-3.426-120.19-8.437-158.27-12.277-38.32-3.852-138.12-14.414-250.45-29.449-68.24-9.133-141.11-19.918-207.65-31.856-32.84-5.89-101.14-22.715-174.05-44.656-54.56-16.418-111.64-35.684-158.24-55.34-83.562-35.242-140.78-63.488-250.89-117.85-21.575-10.648-45.188-22.304-71.422-35.211l-8e-3 -7e-3c-43.735-21.516-150.89-68.547-245.9-103.02-63.008-22.863-120.73-40.207-151.25-40.965-83.933-2.09-133.65 11.52-183.53 25.172-13.906 3.809-27.832 7.625-42.359 11.059v-30.246c59.629-12.672 128.71-25.852 197.78-33.094 69.719-7.309 139.47-8.586 199.54 2.797 61.289 11.613 124.92 47.992 185 82.343 12.527 7.161 24.899 14.235 37.531 21.235 115.41 63.922 234.48 121.8 338.38 165.32 102.24 42.82 189.88 71.785 245.04 78.996 67.94 8.875 153.58 22.348 236.66 36.242 131.84 22.047 257.2 45.168 295.15 52.703 44.63 8.856 91.16 9.801 136.88 10.727 22.55 0.457 44.91 0.91 66.84 2.324 60.68 3.906 118.29 4.235 166.94 2.528 60.83-2.133 107.73-7.461 129.22-12.961 21-5.371 46.57-18.493 73.85-36.977 25.91-17.551 53.44-39.996 80.14-65.269" fill="#abb070"/><path d="m2015.3 374.33c3.37 2.246 8.66 0.461 14.47-4.238 5.16-4.164 11.02-10.727 16.34-18.668 5.32-7.942 9.15-15.863 11.04-22.223 2.12-7.164 1.76-12.738-1.6-14.984s-8.65-0.461-14.47 4.23c-5.16 4.172-11.02 10.735-16.34 18.672-5.31 7.946-9.14 15.863-11.03 22.223-2.13 7.164-1.76 12.738 1.59 14.988"/><path d="m2017.9 370.44c-1.46-0.972-1.24-4.644 0.28-9.785 1.77-5.945 5.39-13.402 10.44-20.941 5.04-7.539 10.56-13.731 15.38-17.625 4.18-3.367 7.49-4.969 8.94-4 1.46 0.972 1.23 4.648-0.29 9.785-1.77 5.941-5.38 13.402-10.43 20.945-5.05 7.539-10.57 13.731-15.39 17.625-4.17 3.367-7.48 4.965-8.93 3.996" fill="#90621d"/></g><text font-family="'adam warren 0.2'" font-size="30px" style="line-height:1.25;shape-inside:url(#rect7874);white-space:pre" xml:space="preserve"/><text font-family="Lato" font-size="30px" style="font-variant-caps:normal;font-variant-east-asian:normal;font-variant-ligatures:normal;font-variant-numeric:normal;line-height:1.25;shape-inside:url(#rect7880);white-space:pre" xml:space="preserve"><tspan x="37.400391" y="47.630469" visibility="hidden"><tspan dx="0 20.429993 15.209999 15.209999 12.089996 14.009972 16.679993 7.6799545 14.969963">Kaarchive</tspan></tspan></text><g transform="scale(1,-1)" stroke-width=".73809" style="font-variant-caps:normal;font-variant-east-asian:normal;font-variant-ligatures:normal;font-variant-numeric:normal" aria-label="Kaarchive"><g fill="#198754" stroke-width=".73809"><path d="m7.2231 18.216h1.488q0.89752 0 1.488-0.23619 0.59047-0.25981 1.0156-0.80304l9.4239-11.928q0.59047-0.7558 1.2282-1.0392 0.66133-0.30705 1.6533-0.30705h5.4796l-11.502 14.195q-0.54323 0.66133-1.0392 1.1101t-1.0628 0.73218q0.77942 0.28343 1.3935 0.80304 0.63771 0.51961 1.2282 1.3227l11.857 15.99h-5.6213q-1.1337 0-1.7006-0.30704-0.54323-0.33066-0.92114-0.94475l-9.6601-12.612q-0.47238-0.61409-1.0628-0.8739-0.59047-0.28343-1.6769-0.28343h-2.0076v15.022h-6.3535v-34.176h6.3535z" style="font-variant-caps:normal;font-variant-east-asian:normal;font-variant-ligatures:normal;font-variant-numeric:normal"/><path d="m52.288 38.056h-2.6217q-0.82666 0-1.299-0.23619-0.47238-0.25981-0.70857-1.0156l-0.51961-1.7242q-0.92114 0.82666-1.8187 1.4644-0.8739 0.61409-1.8187 1.0392t-2.0076 0.63771q-1.0628 0.21257-2.3619 0.21257-1.5352 0-2.8343-0.40152-1.299-0.42514-2.2438-1.2518-0.92114-0.82666-1.4407-2.0548-0.51962-1.2282-0.51962-2.8579 0-1.3699 0.70856-2.6925 0.73218-1.3463 2.4091-2.4091 1.6769-1.0865 4.464-1.795 2.787-0.70857 6.9203-0.80304v-1.4171q0-2.4327-1.0392-3.5901-1.0156-1.1809-2.976-1.1809-1.4171 0-2.3619 0.33066-0.94476 0.33066-1.6533 0.7558-0.68495 0.40152-1.2754 0.73218-0.59047 0.33066-1.299 0.33066-0.59047 0-1.0156-0.30704-0.42514-0.30704-0.68495-0.7558l-1.0628-1.8659q4.1805-3.8263 10.085-3.8263 2.1257 0 3.779 0.70857 1.6769 0.68495 2.8343 1.9367 1.1573 1.2282 1.7478 2.9524 0.61409 1.7242 0.61409 3.779zm-11.337-3.6373q0.89752 0 1.6533-0.16533 0.7558-0.16533 1.4171-0.496 0.68495-0.33066 1.299-0.80304 0.63771-0.496 1.2754-1.1573v-4.0861q-2.5508 0.11809-4.275 0.44876-1.7006 0.30704-2.7398 0.80304-1.0392 0.496-1.488 1.1573-0.42514 0.66133-0.42514 1.4408 0 1.5352 0.89752 2.1966 0.92114 0.66133 2.3855 0.66133z" style="font-variant-caps:normal;font-variant-east-asian:normal;font-variant-ligatures:normal;font-variant-numeric:normal"/><path d="m77.017 38.056h-2.6217q-0.82666 0-1.299-0.23619-0.47238-0.25981-0.70857-1.0156l-0.51962-1.7242q-0.92114 0.82666-1.8187 1.4644-0.8739 0.61409-1.8187 1.0392t-2.0076 0.63771-2.3619 0.21257q-1.5352 0-2.8343-0.40152-1.299-0.42514-2.2438-1.2518-0.92114-0.82666-1.4408-2.0548t-0.51962-2.8579q0-1.3699 0.70857-2.6925 0.73218-1.3463 2.4091-2.4091 1.6769-1.0865 4.464-1.795 2.787-0.70857 6.9203-0.80304v-1.4171q0-2.4327-1.0392-3.5901-1.0156-1.1809-2.976-1.1809-1.4171 0-2.3619 0.33066t-1.6533 0.7558q-0.68495 0.40152-1.2754 0.73218-0.59047 0.33066-1.299 0.33066-0.59047 0-1.0156-0.30704-0.42514-0.30704-0.68495-0.7558l-1.0628-1.8659q4.1805-3.8263 10.085-3.8263 2.1257 0 3.779 0.70857 1.6769 0.68495 2.8343 1.9367 1.1573 1.2282 1.7478 2.9524 0.61409 1.7242 0.61409 3.779zm-11.337-3.6373q0.89752 0 1.6533-0.16533t1.4171-0.496q0.68495-0.33066 1.299-0.80304 0.63771-0.496 1.2754-1.1573v-4.0861q-2.5508 0.11809-4.275 0.44876-1.7006 0.30704-2.7398 0.80304-1.0392 0.496-1.488 1.1573-0.42514 0.66133-0.42514 1.4408 0 1.5352 0.89752 2.1966 0.92114 0.66133 2.3855 0.66133z" style="font-variant-caps:normal;font-variant-east-asian:normal;font-variant-ligatures:normal;font-variant-numeric:normal"/></g><g fill="#fff"><path d="m82.756 38.056v-24.233h3.4247q0.89752 0 1.2518 0.33066t0.47238 1.1337l0.35428 2.9287q1.299-2.2438 3.0468-3.5428 1.7478-1.299 3.9207-1.299 1.795 0 2.976 0.82666l-0.7558 4.3695q-0.07086 0.42514-0.30704 0.61409-0.23619 0.16533-0.63771 0.16533-0.35428 0-0.96837-0.16533t-1.6297-0.16533q-1.8187 0-3.1177 1.0156-1.299 0.99199-2.1966 2.9287v15.092z"/><path d="m119.08 18.948q-0.25981 0.33066-0.51961 0.51962-0.23619 0.18895-0.70857 0.18895-0.44876 0-0.8739-0.25981-0.42514-0.28343-1.0156-0.61409-0.59047-0.35428-1.4171-0.61409-0.80304-0.28343-2.0076-0.28343-1.5352 0-2.6926 0.56685-1.1573 0.54323-1.9368 1.5825-0.7558 1.0392-1.1337 2.5272-0.3779 1.4644-0.3779 3.3303 0 1.9367 0.40152 3.4484 0.42514 1.5116 1.2046 2.5508 0.77942 1.0156 1.8895 1.5588 1.1101 0.51962 2.5036 0.51962 1.3935 0 2.2438-0.33066 0.87389-0.35428 1.4644-0.7558 0.59048-0.42514 1.0156-0.7558 0.44875-0.35428 0.99199-0.35428 0.70856 0 1.0628 0.54323l1.6769 2.1257q-0.96837 1.1337-2.1021 1.9131-1.1337 0.7558-2.3619 1.2282-1.2046 0.44876-2.5036 0.63771-1.299 0.18895-2.5744 0.18895-2.2438 0-4.2278-0.82666-1.984-0.85028-3.472-2.4564-1.4644-1.6061-2.3383-3.9207-0.85028-2.3383-0.85028-5.3142 0-2.6689 0.7558-4.9363 0.77942-2.291 2.2674-3.9443 1.488-1.6769 3.6845-2.6217t5.0544-0.94475q2.7162 0 4.7474 0.8739 2.0548 0.8739 3.6846 2.5036z"/><path d="m124.58 38.056v-35.098h5.8338v13.486q1.4171-1.3463 3.1177-2.1729 1.7006-0.82666 3.9916-0.82666 1.984 0 3.5192 0.68495 1.5352 0.66133 2.5508 1.8895 1.0392 1.2046 1.5588 2.9051 0.54323 1.6769 0.54323 3.7082v15.423h-5.8339v-15.423q0-2.2202-1.0392-3.4247-1.0156-1.2282-3.0704-1.2282-1.5116 0-2.8343 0.68495-1.3226 0.68495-2.5036 1.8659v17.525z"/><path d="m157.65 13.823v24.233h-5.8339v-24.233zm0.8739-7.062q0 0.7558-0.30705 1.4171-0.30704 0.66133-0.82666 1.1573-0.49599 0.496-1.1809 0.80304-0.68495 0.28343-1.4644 0.28343-0.7558 0-1.4408-0.28343-0.66133-0.30705-1.1573-0.80304-0.496-0.496-0.80304-1.1573-0.28343-0.66133-0.28343-1.4171 0-0.77942 0.28343-1.4644 0.30704-0.68495 0.80304-1.1809 0.49599-0.496 1.1573-0.77942 0.68495-0.30705 1.4408-0.30705 0.77942 0 1.4644 0.30705 0.68495 0.28343 1.1809 0.77942 0.51962 0.496 0.82666 1.1809 0.30705 0.68495 0.30705 1.4644z"/><path d="m176.38 38.056h-5.2906l-9.6365-24.233h4.8419q0.63771 0 1.0628 0.30704 0.44876 0.30704 0.61409 0.77942l4.6765 12.943q0.40152 1.1337 0.66133 2.2202 0.28343 1.0865 0.49599 2.1729 0.21257-1.0865 0.47238-2.1729 0.28343-1.0865 0.70857-2.2202l4.7946-12.943q0.16534-0.47238 0.59048-0.77942 0.42513-0.30704 1.0156-0.30704h4.6057z"/><path d="m198.68 13.445q2.291 0 4.2042 0.73218 1.9368 0.73218 3.3303 2.1493 1.3935 1.3935 2.1729 3.4484 0.77943 2.0312 0.77943 4.6529 0 0.66133-0.0709 1.1101-0.0472 0.42514-0.21257 0.68495-0.14171 0.23619-0.40152 0.35428-0.25981 0.09447-0.66133 0.09447h-14.974q0.25981 3.7318 2.0076 5.4796 1.7478 1.7478 4.6293 1.7478 1.4171 0 2.4327-0.33066 1.0392-0.33066 1.795-0.73218 0.77942-0.40152 1.3463-0.73218 0.59047-0.33066 1.1337-0.33066 0.35428 0 0.61409 0.14171t0.44876 0.40152l1.7006 2.1257q-0.96838 1.1337-2.1729 1.9131-1.2046 0.7558-2.5272 1.2282-1.299 0.44876-2.6689 0.63771-1.3463 0.18895-2.6217 0.18895-2.5272 0-4.7002-0.82666-2.1729-0.85028-3.779-2.48-1.6061-1.6533-2.5272-4.0624-0.92114-2.4327-0.92114-5.6213 0-2.48 0.80304-4.6529 0.80305-2.1966 2.291-3.8026 1.5116-1.6297 3.6609-2.5745 2.1729-0.94475 4.8891-0.94475zm0.11809 4.1805q-2.5508 0-3.9916 1.4408t-1.8423 4.0861h10.959q0-1.1337-0.30704-2.1257-0.30705-1.0156-0.94476-1.7714t-1.6061-1.1809q-0.96837-0.44876-2.2674-0.44876z"/></g></g><text font-family="'adam warren 0.2'" font-size="30px" style="line-height:1.25;shape-inside:url(#rect887);white-space:pre" xml:space="preserve"/></g></svg>
