<svg width="15.875mm" height="15.875mm" version="1.1" viewBox="0 0 15.875 15.875" xmlns="http://www.w3.org/2000/svg">
 <g transform="translate(-67.077 -185.01)">
  <path d="m75.12 200.88q-3.3681 0-5.7058-2.3387-2.3377-2.3387-2.3377-5.7082 0-2.9262 1.673-5.0099t4.5092-2.7488q0.99713-0.22167 1.3849 0.26602 0.38777 0.48769 0.07755 1.3966-0.1551 0.4877-0.24374 0.98648-0.08864 0.49876-0.08864 0.98645 0 2.0173 1.4181 3.436 1.4181 1.4188 3.4346 1.4188 0.50964 0 0.99713-0.0665 0.48749-0.0665 0.95281-0.1995 1.0193-0.31035 1.4735 0.11093 0.45425 0.42117 0.18835 1.4409-0.66475 2.6158-2.7255 4.3227-2.0607 1.7069-5.0078 1.7069z" stroke-width=".44326"/>
 </g>
</svg>
