<svg width="15.875mm" height="15.875mm" version="1.1" viewBox="0 0 15.875 15.875" xmlns="http://www.w3.org/2000/svg">
 <g transform="translate(-123.39 -236.79)">
  <path d="m131.33 248.3q-1.4838 0-2.5296-1.0458-1.0458-1.0458-1.0458-2.5296 0-1.4838 1.0458-2.5296 1.0458-1.0458 2.5296-1.0458t2.5296 1.0458q1.0458 1.0458 1.0458 2.5296 0 1.4838-1.0458 2.5296-1.0458 1.0458-2.5296 1.0458zm-7.3297-2.9676q-0.25028 0-0.42905-0.17879-0.17877-0.17877-0.17877-0.42905 0-0.26815 0.17877-0.43799 0.17877-0.16983 0.42905-0.16983h1.7877q0.25027 0 0.42906 0.17877 0.17877 0.17878 0.17877 0.42905 0 0.26816-0.17877 0.438-0.17879 0.16984-0.42906 0.16984zm12.872 0q-0.25029 0-0.42906-0.17879-0.17877-0.17877-0.17877-0.42905 0-0.26815 0.17877-0.43799 0.17877-0.16983 0.42906-0.16983h1.7877q0.25027 0 0.42905 0.17877 0.17877 0.17878 0.17877 0.42905 0 0.26816-0.17877 0.438-0.17878 0.16984-0.42905 0.16984zm-5.542-5.542q-0.26816 0-0.438-0.17877-0.16982-0.17877-0.16982-0.42906v-1.7877q0-0.25029 0.17877-0.42906 0.17877-0.17878 0.42905-0.17878 0.26815 0 0.43799 0.17878 0.16983 0.17877 0.16983 0.42906v1.7877q0 0.25029-0.17877 0.42906t-0.42905 0.17877zm0 12.872q-0.26816 0-0.438-0.17877-0.16982-0.17877-0.16982-0.42905v-1.7877q0-0.25028 0.17877-0.42905 0.17877-0.17879 0.42905-0.17879 0.26815 0 0.43799 0.17879 0.16983 0.17877 0.16983 0.42905v1.7877q0 0.25028-0.17877 0.42905t-0.42905 0.17877zm-4.3442-11.424-1.019-1.0011q-0.17877-0.17877-0.16983-0.43799 9e-3 -0.25921 0.16983-0.438 0.17877-0.17877 0.42906-0.17877 0.25028 0 0.44693 0.17877l1.0011 1.019q0.16089 0.17877 0.16089 0.42905 0 0.25029-0.16089 0.41118-0.16089 0.17877-0.42012 0.1877-0.25922 9e-3 -0.43799-0.16982zm8.8314 8.8492-1.0011-1.019q-0.16089-0.17877-0.16089-0.42906 0-0.25028 0.16089-0.42905 0.17879-0.17877 0.42906-0.17877 0.25028 0 0.42905 0.17877l1.019 1.0011q0.17877 0.17877 0.16982 0.43799-9e-3 0.25922-0.16982 0.43799-0.17877 0.17878-0.42906 0.17878-0.25028 0-0.44693-0.17878zm-1.0011-8.8492q-0.17877-0.17877-0.17877-0.42906 0-0.25028 0.17877-0.42905l1.0011-1.019q0.17877-0.17877 0.43799-0.16982 0.25923 9e-3 0.438 0.16982 0.17877 0.17879 0.17877 0.42906 0 0.25028-0.17877 0.44693l-1.019 1.0011q-0.16089 0.16089-0.41117 0.16089-0.25027 0-0.44694-0.16089zm-8.8492 8.8492q-0.17877-0.17877-0.17877-0.42906 0-0.25027 0.17877-0.44692l1.019-1.0011q0.17877-0.17877 0.42013-0.17877 0.24133 0 0.4201 0.17877 0.19665 0.17877 0.19665 0.42905 0 0.25029-0.17877 0.42906l-1.0011 1.019q-0.17878 0.17878-0.438 0.16983-0.25922-9e-3 -0.43799-0.16983z" fill="#fff" stroke-width=".35754"/>
 </g>
</svg>
