<svg width="15.875mm" height="9.2604mm" version="1.1" viewBox="0 0 15.875 9.2604" xmlns="http://www.w3.org/2000/svg">
 <g transform="translate(-171.56 -189.49)">
  <path d="m171.92 198.39q-0.34248-0.38223-0.35959-0.85127-0.0181-0.46904 0.32536-0.81649l6.7812-6.8795q0.20556-0.20853 0.39387-0.27796 0.18847-0.0696 0.42809-0.0696 0.23973 0 0.4281 0.0696 0.18846 0.0694 0.39386 0.27796l6.7812 6.8447q0.34248 0.31269 0.34248 0.81648t-0.34248 0.85127q-0.3425 0.34744-0.8391 0.34744-0.49659 0-0.83907-0.34744l-5.925-5.9761-5.925 6.0456q-0.30823 0.34748-0.80482 0.33009-0.4966-0.0184-0.8391-0.3648z" fill="#11191f" stroke-width=".68991"/>
 </g>
</svg>
